<svg width="47" height="40" viewBox="0 0 47 40" fill="none" xmlns="http://www.w3.org/2000/svg">
<path fill-rule="evenodd" clip-rule="evenodd" d="M27.0551 18.5C27.0551 21.2614 24.8165 23.5 22.0551 23.5C19.2936 23.5 17.0551 21.2614 17.0551 18.5C17.0551 15.7386 19.2936 13.5 22.0551 13.5C24.8165 13.5 27.0551 15.7386 27.0551 18.5ZM25.8949 23.7451C24.8191 24.5341 23.4915 25 22.0551 25C18.4652 25 15.5551 22.0899 15.5551 18.5C15.5551 14.9102 18.4652 12 22.0551 12C25.645 12 28.5551 14.9102 28.5551 18.5C28.5551 19.9364 28.0892 21.264 27.3002 22.3398L31.2641 26.3036C31.6521 26.6917 31.6521 27.3209 31.2641 27.709C30.876 28.097 30.2468 28.097 29.8587 27.709L25.8949 23.7451Z" fill="#595B66"/>
</svg>
