<svg width="45" height="51" viewBox="0 0 45 51" fill="none" xmlns="http://www.w3.org/2000/svg">
<g clip-path="url(#clip0_1_26935)">
<path d="M32.6176 43.6766C32.6176 46.1655 30.662 48.1211 28.1731 48.1211H5.062C2.57311 48.1211 0.617554 46.1655 0.617554 43.6766V20.5655C0.617554 18.0766 2.57311 16.1211 5.062 16.1211H28.1731C30.662 16.1211 32.6176 18.0766 32.6176 20.5655V43.6766Z" fill="#3B5998"/>
<path d="M25.862 33.0104H22.8397V44.566H18.3953V33.0104H15.7286V29.4549H18.3953V27.3215C18.3953 24.2104 19.7286 22.3438 23.3731 22.3438H26.3953V25.8993H24.3509C22.9286 25.8993 22.8397 26.4326 22.8397 27.4104V29.4549H26.3953L25.862 33.0104Z" fill="white"/>
</g>
<defs>
<clipPath id="clip0_1_26935">
<rect width="32" height="32" fill="white" transform="translate(0.617554 16.1211)"/>
</clipPath>
</defs>
</svg>
