<svg width="34" height="42" viewBox="0 0 34 42" fill="none" xmlns="http://www.w3.org/2000/svg">
<g clip-path="url(#clip0_2_402)">
<path fill-rule="evenodd" clip-rule="evenodd" d="M8.10785 14.5C5.8772 14.5 4.10785 16.3091 4.10785 18.5C4.10785 19.4282 4.48469 20.4436 5.15655 21.5105C5.82477 22.5716 6.74933 23.6274 7.75912 24.6219C9.16554 26.007 10.6396 27.1879 11.7786 28.1003C12.0812 28.3427 12.3601 28.5661 12.6078 28.7694C12.8555 28.5661 13.1344 28.3427 13.437 28.1003C14.576 27.1879 16.0501 26.007 17.4565 24.6219C18.4663 23.6274 19.3909 22.5716 20.0591 21.5105C20.731 20.4436 21.1078 19.4282 21.1078 18.5C21.1078 16.309 19.3392 14.5 17.1078 14.5C14.9551 14.5 13.6816 16.2023 13.334 16.7474C12.9967 17.2765 12.2189 17.2765 11.8816 16.7474C11.534 16.2022 10.2606 14.5 8.10785 14.5ZM2.60785 18.5C2.60785 15.4909 5.0385 13 8.10785 13C10.3393 13 11.8327 14.3021 12.6078 15.2158C13.3829 14.3021 14.8764 13 17.1078 13C20.178 13 22.6078 15.491 22.6078 18.5C22.6078 19.8218 22.0784 21.1189 21.3284 22.3098C20.5747 23.5066 19.5618 24.6539 18.5091 25.6906C17.0507 27.1269 15.4158 28.4384 14.258 29.3672C13.7727 29.7565 13.3712 30.0786 13.1017 30.3144C12.8189 30.5619 12.3967 30.5619 12.1139 30.3144C11.8444 30.0786 11.4429 29.7565 10.9576 29.3672C9.79986 28.4384 8.16497 27.1269 6.70658 25.6906C5.65387 24.6539 4.64093 23.5066 3.88727 22.3098C3.13726 21.1189 2.60785 19.8218 2.60785 18.5Z" fill="#1F2026"/>
</g>
<defs>
<clipPath id="clip0_2_402">
<rect width="24" height="24" fill="white" transform="translate(0.607849 9)"/>
</clipPath>
</defs>
</svg>
