<svg width="45" height="51" viewBox="0 0 45 51" fill="none" xmlns="http://www.w3.org/2000/svg">
<g clip-path="url(#clip0_1_26927)">
<path d="M16.6176 16.1211C29.9509 16.1211 32.6176 18.7878 32.6176 32.1211C32.6176 45.4544 29.9509 48.1211 16.6176 48.1211C3.28422 48.1211 0.617554 45.4544 0.617554 32.1211C0.617554 18.7878 3.28422 16.1211 16.6176 16.1211Z" fill="url(#paint0_linear_1_26927)"/>
<path d="M8.47872 31.9863C13.1431 29.9542 16.2533 28.6144 17.8096 27.9671C22.253 26.119 23.1762 25.798 23.7781 25.7872C23.9104 25.785 24.2064 25.8178 24.3981 25.9734C24.5599 26.1047 24.6045 26.2821 24.6258 26.4067C24.6471 26.5312 24.6736 26.8148 24.6525 27.0365C24.4117 29.5665 23.3698 35.7061 22.8398 38.5397C22.6155 39.7387 22.1738 40.1407 21.7464 40.1801C20.8172 40.2656 20.1117 39.566 19.2117 38.9762C17.8035 38.053 17.008 37.4784 15.641 36.5776C14.0613 35.5367 15.0854 34.9644 15.9856 34.0294C16.2213 33.7847 20.3152 30.061 20.3944 29.7232C20.4042 29.681 20.4135 29.5235 20.3199 29.4404C20.2264 29.3572 20.0882 29.3857 19.9886 29.4082C19.8474 29.4403 17.5978 30.9272 13.2397 33.869C12.6012 34.3075 12.0228 34.5212 11.5046 34.51C10.9333 34.4976 9.83443 34.1869 9.01748 33.9214C8.01545 33.5956 7.2191 33.4235 7.28845 32.8703C7.32457 32.5822 7.72133 32.2875 8.47872 31.9863Z" fill="white"/>
</g>
<defs>
<linearGradient id="paint0_linear_1_26927" x1="16.6176" y1="16.1211" x2="16.6176" y2="47.8836" gradientUnits="userSpaceOnUse">
<stop stop-color="#2AABEE"/>
<stop offset="1" stop-color="#229ED9"/>
</linearGradient>
<clipPath id="clip0_1_26927">
<rect width="32" height="32" fill="white" transform="translate(0.617554 16.1211)"/>
</clipPath>
</defs>
</svg>
