<svg width="34" height="42" viewBox="0 0 34 42" fill="none" xmlns="http://www.w3.org/2000/svg">
<g clip-path="url(#clip0_2_395)">
<path fill-rule="evenodd" clip-rule="evenodd" d="M12.5478 12C10.3387 12 8.54785 13.7909 8.54785 16V17C8.54785 19.2091 10.3387 21 12.5478 21C14.7569 21 16.5478 19.2091 16.5478 17V16C16.5478 13.7909 14.7569 12 12.5478 12ZM10.0478 16C10.0478 14.6193 11.1671 13.5 12.5478 13.5C13.9285 13.5 15.0478 14.6193 15.0478 16V17C15.0478 18.3807 13.9285 19.5 12.5478 19.5C11.1671 19.5 10.0478 18.3807 10.0478 17V16ZM6.05017 28.3686C6.52106 25.2577 9.56588 23.5 12.55 23.5C15.5336 23.5 18.5788 25.2577 19.0497 28.3686C19.0524 28.3866 19.0503 28.3972 19.0478 28.4048C19.0448 28.4137 19.0381 28.4269 19.0237 28.442C18.9931 28.4741 18.9372 28.5039 18.8649 28.5039H6.23503C6.16272 28.5039 6.10683 28.4741 6.07623 28.442C6.06179 28.4269 6.05511 28.4137 6.05212 28.4048C6.04959 28.3972 6.04746 28.3865 6.05017 28.3686ZM12.55 22C9.12106 22 5.18822 24.0404 4.56707 28.1441C4.40409 29.2208 5.30512 30.0039 6.23503 30.0039H18.8649C19.7948 30.0039 20.6958 29.2208 20.5328 28.1441C19.9116 24.0404 15.9784 22 12.55 22Z" fill="#1F2026"/>
</g>
<defs>
<clipPath id="clip0_2_395">
<rect width="24" height="24" fill="white" transform="translate(0.547852 9)"/>
</clipPath>
</defs>
</svg>
